<?xml version="1.0" encoding="UTF-8" standalone="no"?>
<!DOCTYPE svg PUBLIC "-//W3C//DTD SVG 1.1//EN" "http://www.w3.org/Graphics/SVG/1.1/DTD/svg11.dtd">
<svg width="100%" height="100%" viewBox="0 0 859 65" version="1.1" xmlns="http://www.w3.org/2000/svg" xmlns:xlink="http://www.w3.org/1999/xlink" xml:space="preserve" xmlns:serif="http://www.serif.com/" style="fill-rule:evenodd;clip-rule:evenodd;stroke-linejoin:round;stroke-miterlimit:2;">
    <g transform="matrix(1,0,0,1,-189.609,-4704.27)">
        <g transform="matrix(1,0,0,1,0,4509.19)">
            <g transform="matrix(1,0,0,1,238.194,217.978)">
                <path d="M0,19.101L-15.576,-15.761L-31.153,19.101L0,19.101ZM2.503,24.664L-33.657,24.664L-41.446,42.002L-48.585,42.002L-18.915,-22.901L-12.146,-22.901L17.523,42.002L10.292,42.002L2.503,24.664Z" style="fill:white;fill-rule:nonzero;"/>
            </g>
        </g>
        <g transform="matrix(1,0,0,1,0,4509.19)">
            <g transform="matrix(1,0,0,1,291.877,254.045)">
                <path d="M0,-53.034L0,-27.537L33.564,-27.537L33.564,-21.603L0,-21.603L0,5.935L-6.861,5.935L-6.861,-58.969L37.644,-58.969L37.644,-53.034L0,-53.034Z" style="fill:white;fill-rule:nonzero;"/>
            </g>
        </g>
        <g transform="matrix(1,0,0,1,0,4509.19)">
            <g transform="matrix(1,0,0,1,375.325,254.045)">
                <path d="M0,-53.034L-22.809,-53.034L-22.809,-58.969L29.67,-58.969L29.67,-53.034L6.86,-53.034L6.86,5.935L0,5.935L0,-53.034Z" style="fill:white;fill-rule:nonzero;"/>
            </g>
        </g>
        <g transform="matrix(1,0,0,1,0,4509.19)">
            <g transform="matrix(1,0,0,1,473.327,225.766)">
                <path d="M0,3.525C3.399,0.682 5.101,-3.305 5.101,-8.437C5.101,-13.69 3.399,-17.722 0,-20.536C-3.4,-23.348 -8.313,-24.754 -14.742,-24.754L-31.987,-24.754L-31.987,7.79L-14.742,7.79C-8.313,7.79 -3.4,6.368 0,3.525M5.471,34.214L-9.364,13.353C-11.033,13.539 -12.765,13.631 -14.557,13.631L-31.987,13.631L-31.987,34.214L-38.85,34.214L-38.85,-30.689L-14.557,-30.689C-6.273,-30.689 0.216,-28.71 4.915,-24.754C9.611,-20.799 11.961,-15.359 11.961,-8.437C11.961,-3.368 10.678,0.915 8.113,4.406C5.548,7.898 1.886,10.418 -2.873,11.963L12.98,34.214L5.471,34.214Z" style="fill:white;fill-rule:nonzero;"/>
            </g>
        </g>
        <g transform="matrix(1,0,0,1,0,4509.19)">
            <g transform="matrix(1,0,0,1,630.299,259.98)">
                <path d="M0,-64.903L0,0L-6.582,0L-6.582,-51.923L-32.08,-8.252L-35.325,-8.252L-60.823,-51.644L-60.823,0L-67.407,0L-67.407,-64.903L-61.75,-64.903L-33.563,-16.781L-5.655,-64.903L0,-64.903Z" style="fill:white;fill-rule:nonzero;"/>
            </g>
        </g>
        <g transform="matrix(1,0,0,1,0,4509.19)">
            <g transform="matrix(1,0,0,1,708.184,217.978)">
                <path d="M0,19.101L-15.577,-15.761L-31.154,19.101L0,19.101ZM2.502,24.664L-33.658,24.664L-41.447,42.002L-48.586,42.002L-18.916,-22.901L-12.147,-22.901L17.522,42.002L10.291,42.002L2.502,24.664Z" style="fill:white;fill-rule:nonzero;"/>
            </g>
        </g>
        <g transform="matrix(1,0,0,1,0,4509.19)">
            <g transform="matrix(1,0,0,1,793.856,225.766)">
                <path d="M0,3.525C3.399,0.682 5.101,-3.305 5.101,-8.437C5.101,-13.69 3.399,-17.722 0,-20.536C-3.4,-23.348 -8.313,-24.754 -14.742,-24.754L-31.987,-24.754L-31.987,7.79L-14.742,7.79C-8.313,7.79 -3.4,6.368 0,3.525M5.471,34.214L-9.364,13.353C-11.033,13.539 -12.765,13.631 -14.557,13.631L-31.987,13.631L-31.987,34.214L-38.85,34.214L-38.85,-30.689L-14.557,-30.689C-6.273,-30.689 0.216,-28.71 4.915,-24.754C9.611,-20.799 11.961,-15.359 11.961,-8.437C11.961,-3.368 10.678,0.915 8.113,4.406C5.548,7.898 1.886,10.418 -2.873,11.963L12.98,34.214L5.471,34.214Z" style="fill:white;fill-rule:nonzero;"/>
            </g>
        </g>
        <g transform="matrix(1,0,0,1,0,4509.19)">
            <g transform="matrix(1,0,0,1,860.706,225.581)">
                <path d="M0,3.895L-13.259,17.339L-13.259,34.399L-20.12,34.399L-20.12,-30.504L-13.259,-30.504L-13.259,8.715L24.849,-30.504L32.73,-30.504L4.637,-1.112L34.678,34.399L26.518,34.399L0,3.895Z" style="fill:white;fill-rule:nonzero;"/>
            </g>
        </g>
        <g transform="matrix(1,0,0,1,0,4509.19)">
            <g transform="matrix(1,0,0,1,970.95,201.011)">
                <path d="M0,53.036L0,58.97L-45.897,58.97L-45.897,-5.934L-1.392,-5.934L-1.392,0.001L-39.035,0.001L-39.035,23.088L-5.472,23.088L-5.472,28.93L-39.035,28.93L-39.035,53.036L0,53.036Z" style="fill:white;fill-rule:nonzero;"/>
            </g>
        </g>
        <g transform="matrix(1,0,0,1,0,4509.19)">
            <g transform="matrix(1,0,0,1,1018.24,254.045)">
                <path d="M0,-53.034L-22.809,-53.034L-22.809,-58.969L29.67,-58.969L29.67,-53.034L6.861,-53.034L6.861,5.935L0,5.935L0,-53.034Z" style="fill:white;fill-rule:nonzero;"/>
            </g>
        </g>
    </g>
</svg>
