<?xml version="1.0" encoding="UTF-8" standalone="no"?>
<!DOCTYPE svg PUBLIC "-//W3C//DTD SVG 1.1//EN" "http://www.w3.org/Graphics/SVG/1.1/DTD/svg11.dtd">
<svg width="100%" height="100%" viewBox="0 0 846 754" version="1.1" xmlns="http://www.w3.org/2000/svg" xmlns:xlink="http://www.w3.org/1999/xlink" xml:space="preserve" xmlns:serif="http://www.serif.com/" style="fill-rule:evenodd;clip-rule:evenodd;stroke-linejoin:round;stroke-miterlimit:2;">
    <path d="M394.2,6.1L791.9,604.8L394.3,375.2L394.2,6.1Z" style="fill:url(#_Linear1);fill-rule:nonzero;"/>
    <path d="M773.9,646.6C778,649 779.8,644.1 776.6,639.3L356,6.2C353.2,1.9 349,1.8 349,6L349.1,396.2C349.1,399 351,402.3 353.4,403.7L773.9,646.6ZM411.3,186.4C411.3,182.2 415.5,182.3 418.3,186.6L602.7,463.8C605.9,468.6 604.1,473.5 600,471.1L415.7,364.6C413.3,363.2 411.4,359.9 411.4,357.1L411.3,186.4Z" style="fill:url(#_Linear2);fill-rule:nonzero;"/>
    <path d="M547.7,19.2L845.3,191.1L845.3,346.2L574,189.4L547.8,198L547.7,19.2Z" style="fill:url(#_Linear3);fill-rule:nonzero;"/>
    <path d="M608.1,106.1C608.1,118.9 600.5,124.9 591.2,119.5C581.9,114.1 574.3,99.4 574.3,86.6C574.3,73.8 581.9,67.8 591.2,73.2C600.6,78.6 608.1,93.3 608.1,106.1Z" style="fill:rgb(255,252,121);fill-rule:nonzero;"/>
    <path d="M624.2,101.1L689.4,138.8L689.4,152.4L624.2,114.7L624.2,101.1Z" style="fill:white;fill-opacity:0.15;fill-rule:nonzero;"/>
    <path d="M624.2,128.4L818.9,240.9L818.9,254.5L624.2,142L624.2,128.4Z" style="fill:white;fill-opacity:0.15;fill-rule:nonzero;"/>
    <path d="M624.2,155.7L776.5,243.7L776.5,257.3L624.2,169.3L624.2,155.7Z" style="fill:white;fill-opacity:0.15;fill-rule:nonzero;"/>
    <path d="M297.8,401.4L0.3,229.5L0.3,384.6L271.6,541.3L297.9,580.2L297.8,401.4Z" style="fill:url(#_Linear4);fill-rule:nonzero;"/>
    <path d="M237.4,418.4C237.4,431.2 245,445.9 254.3,451.3C263.6,456.7 271.2,450.7 271.2,437.9C271.2,425.1 263.6,410.4 254.3,405C245,399.7 237.4,405.7 237.4,418.4Z" style="fill:rgb(108,140,255);fill-rule:nonzero;"/>
    <path d="M221.3,395L156.1,357.3L156.1,370.9L221.3,408.6L221.3,395Z" style="fill:white;fill-opacity:0.15;fill-rule:nonzero;"/>
    <path d="M221.4,422.2L26.6,309.7L26.6,323.3L221.3,435.8L221.4,422.2Z" style="fill:white;fill-opacity:0.15;fill-rule:nonzero;"/>
    <path d="M221.4,449.5L69.1,361.5L69.1,375.1L221.4,463.1L221.4,449.5Z" style="fill:white;fill-opacity:0.15;fill-rule:nonzero;"/>
    <path d="M192,0.3L316.3,72.1L316.4,341.4L192,269.6L192,0.3Z" style="fill:url(#_Linear5);fill-rule:nonzero;"/>
    <path d="M153.1,74.2L250.9,130.7L250.9,163L153.1,106.5L153.1,74.2Z" style="fill:rgb(108,140,255);fill-rule:nonzero;"/>
    <path d="M192,229.6L316.3,301.4L316.3,341.3L192,269.5L192,229.6Z" style="fill:white;fill-opacity:0.15;fill-rule:nonzero;"/>
    <path d="M207.3,49.2L258.3,78.6L258.3,92.2L207.3,62.8L207.3,49.2Z" style="fill:white;fill-opacity:0.15;fill-rule:nonzero;"/>
    <path d="M207.4,76.5L297.6,128.6L297.6,142.2L207.4,90.1L207.4,76.5Z" style="fill:white;fill-opacity:0.15;fill-rule:nonzero;"/>
    <path d="M260.3,225.5L260.3,239.1L207.4,208.5L207.4,194.9L260.3,225.5Z" style="fill:white;fill-opacity:0.15;fill-rule:nonzero;"/>
    <path d="M454.6,484.2L330.3,412.4L330.4,681.7L454.7,753.5L454.6,484.2Z" style="fill:url(#_Linear6);fill-rule:nonzero;"/>
    <path d="M493.5,603L395.7,546.5L395.7,578.8L493.5,635.3L493.5,603Z" style="fill:rgb(255,252,121);fill-rule:nonzero;"/>
    <path d="M454.7,713.5L330.4,641.7L330.4,681.6L454.7,753.4L454.7,713.5Z" style="fill:white;fill-opacity:0.15;fill-rule:nonzero;"/>
    <path d="M349.1,463.3L400.1,492.7L400.1,506.3L349.1,476.9L349.1,463.3Z" style="fill:white;fill-opacity:0.15;fill-rule:nonzero;"/>
    <path d="M349.1,490.6L439.3,542.7L439.3,556.3L349.1,504.2L349.1,490.6Z" style="fill:white;fill-opacity:0.15;fill-rule:nonzero;"/>
    <path d="M386.4,630.6L386.4,644.2L439.3,674.8L439.3,661.2L386.4,630.6Z" style="fill:white;fill-opacity:0.15;fill-rule:nonzero;"/>
    <path d="M708.3,312.9C714.3,316.3 719.1,324.7 719.1,331.6L719.1,362.1L739.3,373.7C745.3,377.1 750.1,385.5 750.1,392.4C750.1,399.3 745.3,402.1 739.3,398.7L719.1,387.1L719.1,417.6C719.1,424.5 714.3,427.3 708.3,423.9C702.3,420.5 697.5,412.1 697.5,405.2L697.5,374.7L677.3,363C671.3,359.6 666.5,351.2 666.5,344.2C666.5,337.3 671.3,334.5 677.3,337.9L697.5,349.5L697.5,319C697.5,312.2 702.3,309.4 708.3,312.9Z" style="fill:url(#_Linear7);fill-rule:nonzero;"/>
    <defs>
        <linearGradient id="_Linear1" x1="0" y1="0" x2="1" y2="0" gradientUnits="userSpaceOnUse" gradientTransform="matrix(-203.61,352.449,-352.449,-203.61,683.874,148.235)"><stop offset="0" style="stop-color:white;stop-opacity:0.1"/><stop offset="1" style="stop-color:white;stop-opacity:0"/></linearGradient>
        <linearGradient id="_Linear2" x1="0" y1="0" x2="1" y2="0" gradientUnits="userSpaceOnUse" gradientTransform="matrix(-206.193,356.702,-356.702,-206.193,662.158,154.582)"><stop offset="0" style="stop-color:white;stop-opacity:0.4"/><stop offset="0.9" style="stop-color:white;stop-opacity:0"/><stop offset="1" style="stop-color:white;stop-opacity:0"/></linearGradient>
        <linearGradient id="_Linear3" x1="0" y1="0" x2="1" y2="0" gradientUnits="userSpaceOnUse" gradientTransform="matrix(38.2738,312.023,-312.023,38.2738,675.662,24.2615)"><stop offset="0" style="stop-color:white;stop-opacity:0.3"/><stop offset="1" style="stop-color:white;stop-opacity:0"/></linearGradient>
        <linearGradient id="_Linear4" x1="0" y1="0" x2="1" y2="0" gradientUnits="userSpaceOnUse" gradientTransform="matrix(-153.66,120.253,-120.253,-153.66,232.936,339.24)"><stop offset="0" style="stop-color:white;stop-opacity:0.3"/><stop offset="1" style="stop-color:white;stop-opacity:0"/></linearGradient>
        <linearGradient id="_Linear5" x1="0" y1="0" x2="1" y2="0" gradientUnits="userSpaceOnUse" gradientTransform="matrix(-107.444,185.987,-185.987,-107.444,312.512,69.9116)"><stop offset="0" style="stop-color:white;stop-opacity:0.2"/><stop offset="1" style="stop-color:white;stop-opacity:0"/></linearGradient>
        <linearGradient id="_Linear6" x1="0" y1="0" x2="1" y2="0" gradientUnits="userSpaceOnUse" gradientTransform="matrix(-107.445,185.987,-185.987,-107.445,450.812,482.012)"><stop offset="0" style="stop-color:white;stop-opacity:0.2"/><stop offset="1" style="stop-color:white;stop-opacity:0"/></linearGradient>
        <linearGradient id="_Linear7" x1="0" y1="0" x2="1" y2="0" gradientUnits="userSpaceOnUse" gradientTransform="matrix(-52.3581,41.32,-41.32,-52.3581,729.177,351.87)"><stop offset="0" style="stop-color:white;stop-opacity:0.2"/><stop offset="1" style="stop-color:white;stop-opacity:0"/></linearGradient>
    </defs>
</svg>
